<?xml version="1.0" encoding="utf-8" ?>
<svg baseProfile="tiny" height="100%" version="1.2" width="100%" xmlns="http://www.w3.org/2000/svg" xmlns:ev="http://www.w3.org/2001/xml-events" xmlns:xlink="http://www.w3.org/1999/xlink"><defs /><polygon fill="black" points="298,373 296,375 297,375 298,376 301,376 302,377 305,377 306,378 307,378 309,380 310,380 314,384 314,385 315,386 315,387 316,388 316,389 317,390 317,392 318,393 318,398 319,399 319,585 318,586 318,591 317,592 317,594 316,595 316,596 314,598 314,599 312,601 311,601 309,603 308,603 307,604 306,604 305,605 303,605 302,606 298,606 297,607 297,608 370,608 371,607 370,606 367,606 366,605 364,605 363,604 361,604 360,603 359,603 358,602 357,602 353,598 353,597 351,595 351,594 350,593 350,590 349,589 349,582 348,581 348,397 349,396 349,392 350,391 350,389 351,388 351,387 352,386 352,385 357,380 358,380 360,378 362,378 363,377 365,377 366,376 369,376 370,375 371,375 371,374 370,373" /><polygon fill="black" points="90,373 89,374 91,376 95,376 96,377 98,377 99,378 100,378 101,379 102,379 109,386 109,387 110,388 110,389 111,390 111,391 112,392 112,396 113,397 113,587 112,588 112,592 111,593 111,594 110,595 110,596 108,598 108,599 106,601 105,601 103,603 102,603 101,604 100,604 99,605 97,605 96,606 93,606 92,607 91,607 91,608 166,608 166,607 165,606 163,606 162,605 159,605 158,604 156,604 155,603 154,603 152,601 151,601 148,598 148,597 146,595 146,593 145,592 145,589 144,588 144,500 143,499 144,498 175,498 177,500 177,501 178,502 178,503 179,504 179,505 180,506 180,507 181,508 181,509 183,511 183,512 184,513 184,514 185,515 185,516 186,517 186,518 187,519 187,520 188,521 188,522 189,523 189,524 190,525 190,526 191,527 191,528 192,529 192,530 193,531 193,532 194,533 194,534 196,536 196,537 197,538 197,539 198,540 198,541 199,542 199,543 200,544 200,545 201,546 201,547 202,548 202,549 203,550 203,551 204,552 204,553 205,554 205,555 206,556 206,557 207,558 207,559 209,561 209,562 210,563 210,564 211,565 211,566 212,567 212,568 213,569 213,570 214,571 214,572 215,573 215,574 216,575 216,576 217,577 217,578 218,579 218,580 219,581 219,582 220,583 220,584 221,585 221,586 223,588 223,589 224,590 224,591 225,592 225,593 226,594 226,595 228,597 228,598 235,605 236,605 238,607 242,607 243,608 282,608 283,607 282,606 280,606 279,605 277,605 276,604 274,604 273,603 272,603 271,602 270,602 269,601 268,601 259,592 259,591 257,589 257,588 256,587 256,586 254,584 254,583 253,582 253,581 252,580 252,579 250,577 250,576 249,575 249,574 248,573 248,572 247,571 247,570 246,569 246,568 245,567 245,566 244,565 244,564 242,562 242,561 241,560 241,559 240,558 240,557 239,556 239,555 238,554 238,553 237,552 237,551 236,550 236,549 235,548 235,547 234,546 234,545 232,543 232,542 231,541 231,540 230,539 230,538 229,537 229,536 228,535 228,534 227,533 227,532 226,531 226,530 225,529 225,528 224,527 224,526 223,525 223,524 222,523 222,522 221,521 221,520 219,518 219,516 217,514 217,513 216,512 216,511 215,510 215,509 214,508 214,507 213,506 213,505 212,504 212,503 211,502 211,501 210,500 210,499 209,498 209,497 208,496 209,495 211,495 212,494 214,494 215,493 216,493 217,492 218,492 219,491 220,491 221,490 223,490 224,489 225,489 227,487 228,487 229,486 230,486 233,483 234,483 244,473 244,472 246,470 246,469 247,468 247,467 249,465 249,464 250,463 250,461 251,460 251,459 252,458 252,456 253,455 253,452 254,451 254,446 255,445 255,428 254,427 254,422 253,421 253,418 252,417 252,415 251,414 251,412 250,411 250,410 249,409 249,408 247,406 247,405 246,404 246,403 244,401 244,400 234,390 233,390 230,387 229,387 228,386 227,386 225,384 224,384 223,383 222,383 221,382 220,382 219,381 218,381 217,380 215,380 214,379 212,379 211,378 209,378 208,377 205,377 204,376 201,376 200,375 195,375 194,374 188,374 187,373" /><polygon fill="black" points="846,368 844,370 844,372 843,373 843,374 842,375 842,377 841,378 841,379 840,380 840,382 839,383 839,385 838,386 838,387 837,388 837,390 836,391 836,393 835,394 835,395 834,396 834,398 833,399 833,400 832,401 832,403 831,404 831,406 830,407 830,408 829,409 829,411 828,412 828,413 827,414 827,416 826,417 826,419 825,420 825,422 824,423 824,424 823,425 823,427 822,428 822,430 821,431 821,432 820,433 820,435 819,436 819,437 818,438 818,440 817,441 817,443 816,444 816,445 815,446 815,448 814,449 814,451 813,452 813,453 812,454 812,456 811,457 811,459 810,460 810,461 809,462 809,464 808,465 808,466 807,467 807,469 806,470 806,472 805,473 805,474 804,475 804,477 803,478 803,480 802,481 802,482 801,483 801,485 800,486 800,488 799,489 799,490 798,491 798,493 797,494 797,496 796,497 796,499 795,500 795,501 794,502 794,504 793,505 793,506 792,507 792,509 791,510 791,512 790,513 790,514 789,515 789,517 788,518 788,519 787,520 787,522 786,523 786,525 785,526 785,528 784,529 784,530 783,531 783,533 782,534 782,535 781,536 781,538 780,539 780,541 779,542 779,543 778,544 778,546 777,547 777,548 776,549 776,551 775,552 775,554 774,555 774,557 773,558 773,559 772,560 772,562 771,563 771,565 770,566 770,567 769,568 769,570 768,571 768,572 767,573 767,575 766,576 766,578 765,579 765,580 764,581 764,583 763,584 763,585 762,586 762,587 761,588 761,589 760,590 760,591 759,592 759,593 757,595 757,596 752,601 751,601 749,603 747,603 746,604 745,604 744,605 741,605 740,606 738,606 737,607 737,608 794,608 795,607 794,606 792,606 791,605 788,605 787,604 786,604 785,603 784,603 783,602 782,602 777,597 777,596 776,595 776,589 775,588 776,587 776,581 777,580 777,577 778,576 778,573 779,572 779,570 780,569 780,567 781,566 781,564 782,563 782,561 783,560 783,559 784,558 784,556 785,555 785,553 786,552 786,551 787,550 787,548 788,547 788,545 789,544 789,542 790,541 790,540 791,539 791,537 792,536 792,534 793,533 793,531 794,530 794,529 795,528 795,526 798,523 799,524 800,523 875,523 877,525 877,526 878,527 878,529 879,530 879,532 880,533 880,534 881,535 881,537 882,538 882,540 883,541 883,543 884,544 884,545 885,546 885,548 886,549 886,551 887,552 887,553 888,554 888,556 889,557 889,559 890,560 890,561 891,562 891,564 892,565 892,567 893,568 893,570 894,571 894,573 895,574 895,575 896,576 896,578 897,579 897,581 898,582 898,586 899,587 899,594 898,595 898,596 897,597 897,598 893,602 892,602 891,603 890,603 889,604 887,604 886,605 884,605 883,606 880,606 879,607 879,608 955,608 955,607 954,606 952,606 951,605 950,605 949,604 947,604 946,603 945,603 944,602 943,602 941,600 940,600 939,599 939,598 937,596 937,595 935,593 935,592 934,591 934,590 933,589 933,587 932,586 932,585 931,584 931,582 930,581 930,580 929,579 929,577 928,576 928,574 927,573 927,572 926,571 926,569 925,568 925,567 924,566 924,564 923,563 923,561 922,560 922,559 921,558 921,556 920,555 920,554 919,553 919,551 918,550 918,549 917,548 917,546 916,545 916,543 915,542 915,540 914,539 914,538 913,537 913,535 912,534 912,532 911,531 911,530 910,529 910,527 909,526 909,525 908,524 908,522 907,521 907,519 906,518 906,517 905,516 905,514 904,513 904,511 903,510 903,509 902,508 902,506 901,505 901,504 900,503 900,501 899,500 899,498 898,497 898,496 897,495 897,493 896,492 896,490 895,489 895,488 894,487 894,485 893,484 893,482 892,481 892,480 891,479 891,477 890,476 890,474 889,473 889,472 888,471 888,469 887,468 887,467 886,466 886,464 885,463 885,461 884,460 884,458 883,457 883,456 882,455 882,453 881,452 881,451 880,450 880,448 879,447 879,446 878,445 878,443 877,442 877,440 876,439 876,437 875,436 875,434 874,433 874,432 873,431 873,430 872,429 872,427 871,426 871,424 870,423 870,422 869,421 869,419 868,418 868,416 867,415 867,414 866,413 866,411 865,410 865,408 864,407 864,406 863,405 863,403 862,402 862,401 861,400 861,398 860,397 860,395 859,394 859,393 858,392 858,390 857,389 857,387 856,386 856,385 855,384 855,382 854,381 854,379 853,378 853,377 852,376 852,374 851,373 851,372 850,371 850,369 849,368" /><polygon fill="black" points="550,352 549,353 547,353 546,354 547,355 552,355 553,356 556,356 557,357 559,357 560,358 561,358 562,359 563,359 569,365 569,366 570,367 570,368 571,369 571,370 572,371 572,372 573,373 573,376 574,377 574,385 575,386 575,389 574,390 574,397 573,398 573,403 572,404 572,407 571,408 571,410 570,411 570,413 569,414 569,416 568,417 568,419 567,420 567,421 566,422 566,424 565,425 565,426 564,427 564,429 563,430 563,431 562,432 562,433 561,434 561,436 560,437 560,439 559,440 559,441 558,442 558,444 557,445 557,446 556,447 556,449 555,450 555,451 554,452 554,454 553,455 553,456 552,457 552,459 551,460 551,462 550,463 550,464 549,465 549,467 548,468 548,469 547,470 547,472 546,473 546,474 545,475 545,477 544,478 544,479 543,480 543,482 542,483 542,484 541,485 541,487 540,488 540,489 539,490 539,492 538,493 538,494 537,495 537,497 536,498 536,500 535,501 535,502 534,503 534,504 533,505 533,507 532,508 532,510 531,511 531,512 530,513 530,515 529,516 529,517 528,518 528,520 527,521 527,522 526,523 526,525 525,526 525,527 524,528 524,530 523,531 523,532 522,533 522,535 521,536 521,537 520,538 520,540 519,541 519,542 518,543 518,544 517,545 517,547 516,548 516,550 515,551 515,552 514,553 514,555 513,556 513,557 512,558 512,560 511,561 511,562 510,563 510,564 509,565 509,567 508,568 508,569 507,570 507,572 506,573 505,573 504,572 504,570 503,569 503,567 502,566 502,565 501,564 501,562 500,561 500,560 499,559 499,557 498,556 498,555 497,554 497,552 496,551 496,550 495,549 495,547 494,546 494,544 493,543 493,542 492,541 492,539 491,538 491,537 490,536 490,534 489,533 489,532 488,531 488,530 487,529 487,527 486,526 486,524 485,523 485,522 484,521 484,519 483,518 483,517 482,516 482,514 481,513 481,512 480,511 480,509 479,508 479,507 478,506 478,504 477,503 477,502 476,501 476,499 475,498 475,496 474,495 474,494 473,493 473,491 472,490 472,489 471,488 471,487 470,486 470,484 469,483 469,481 468,480 468,479 467,478 467,476 466,475 466,474 465,473 465,471 464,470 464,469 463,468 463,466 462,465 462,463 461,462 461,461 460,460 460,458 459,457 459,456 458,455 458,454 457,453 457,451 456,450 456,448 455,447 455,446 454,445 454,443 453,442 453,441 452,440 452,438 451,437 451,436 450,435 450,433 449,432 449,431 448,430 448,428 447,427 447,426 446,425 446,423 445,422 445,421 444,420 444,418 443,417 443,416 442,415 442,413 441,412 441,411 440,410 440,408 439,407 439,405 438,404 438,403 437,402 437,399 436,398 436,396 435,395 435,389 434,388 435,387 435,385 436,384 436,383 440,379 441,379 442,378 443,378 444,377 445,377 446,376 450,376 452,374 451,373 379,373 378,374 377,374 378,375 378,376 383,376 384,377 385,377 386,378 387,378 388,379 389,379 390,380 391,380 398,387 398,388 400,390 400,391 401,392 401,393 402,394 402,395 404,397 404,398 405,399 405,401 406,402 406,403 407,404 407,405 408,406 408,408 409,409 409,411 410,412 410,413 411,414 411,416 412,417 412,418 413,419 413,420 414,421 414,423 415,424 415,425 416,426 416,428 417,429 417,430 418,431 418,433 419,434 419,435 420,436 420,437 421,438 421,440 422,441 422,442 423,443 423,445 424,446 424,447 425,448 425,450 426,451 426,452 427,453 427,455 428,456 428,457 429,458 429,459 430,460 430,462 431,463 431,464 432,465 432,467 433,468 433,469 434,470 434,472 435,473 435,474 436,475 436,477 437,478 437,479 438,480 438,482 439,483 439,484 440,485 440,486 441,487 441,489 442,490 442,491 443,492 443,494 444,495 444,496 445,497 445,499 446,500 446,501 447,502 447,504 448,505 448,506 449,507 449,508 450,509 450,511 451,512 451,513 452,514 452,516 453,517 453,518 454,519 454,521 455,522 455,523 456,524 456,525 457,526 457,528 458,529 458,530 459,531 459,533 460,534 460,535 461,536 461,537 462,538 462,540 463,541 463,542 464,543 464,545 465,546 465,547 466,548 466,550 467,551 467,552 468,553 468,555 469,556 469,557 470,558 470,560 471,561 471,562 472,563 472,565 473,566 473,567 474,568 474,569 475,570 475,572 476,573 476,574 477,575 477,577 478,578 478,579 479,580 479,582 480,583 480,584 481,585 481,587 482,588 482,589 483,590 483,592 484,593 484,594 485,595 485,597 486,598 486,599 487,600 487,601 488,602 488,604 489,605 489,606 490,607 490,609 491,610 491,611 492,612 492,613 494,615 497,615 499,613 499,612 500,611 500,610 501,609 501,608 502,607 502,606 503,605 503,603 504,602 504,600 505,599 505,598 506,597 506,596 507,595 507,593 508,592 508,591 509,590 509,589 510,588 510,586 511,585 511,584 512,583 512,581 513,580 513,579 514,578 514,576 515,575 515,574 516,573 516,571 517,570 517,569 518,568 518,566 519,565 519,564 520,563 520,561 521,560 521,559 522,558 522,557 523,556 523,554 524,553 524,552 525,551 525,549 526,548 526,547 527,546 527,544 528,543 528,542 529,541 529,539 530,538 530,537 531,536 531,535 532,534 532,532 533,531 533,530 534,529 534,527 535,526 535,525 536,524 536,522 537,521 537,520 538,519 538,517 539,516 539,515 540,514 540,512 541,511 541,510 542,509 542,507 543,506 543,505 544,504 544,503 545,502 545,500 546,499 546,497 547,496 547,495 548,494 548,493 549,492 549,490 550,489 550,487 551,486 551,485 552,484 552,483 553,482 553,480 554,479 554,477 555,476 555,475 556,474 556,473 557,472 557,470 558,469 558,468 559,467 559,465 560,464 560,463 561,462 561,460 562,459 562,458 563,457 563,455 564,454 564,453 565,452 565,450 566,449 566,448 567,447 567,446 568,445 568,443 569,442 569,441 570,440 570,439 571,438 571,436 572,435 572,434 573,433 573,431 574,430 574,429 575,428 575,426 576,425 576,424 577,423 577,421 578,420 578,419 579,418 579,416 580,415 580,414 581,413 581,412 582,411 582,409 583,408 583,407 584,406 584,405 585,404 585,402 586,401 586,400 587,399 587,398 588,397 588,396 589,395 589,394 591,392 591,391 592,390 592,389 595,386 595,385 606,374 607,374 609,372 610,372 611,371 612,371 613,370 614,370 615,369 617,369 618,368 622,368 623,367 640,367 641,368 644,368 645,369 647,369 648,370 650,370 651,371 652,371 653,372 654,372 655,373 657,373 658,374 659,374 661,376 662,376 664,378 665,378 670,383 671,383 680,392 680,393 682,395 682,396 685,399 685,400 686,401 686,402 688,404 688,405 689,406 689,407 690,408 690,409 691,410 691,411 692,412 692,413 693,414 693,415 694,416 694,418 695,419 695,420 696,421 696,423 697,424 697,427 698,428 698,431 699,432 699,435 700,436 700,441 701,442 701,449 702,450 702,478 701,479 701,486 700,487 700,492 699,493 699,497 698,498 698,501 697,502 697,504 696,505 696,508 695,509 695,510 694,511 694,513 693,514 693,516 692,517 692,519 691,520 691,521 690,522 690,523 689,524 689,526 688,527 688,528 687,529 687,530 685,532 685,533 684,534 684,535 683,536 683,537 682,538 682,539 680,541 680,542 679,543 679,544 677,546 677,547 675,549 675,550 672,553 672,554 669,557 669,558 664,563 664,564 659,569 659,570 642,587 641,587 635,593 634,593 630,597 629,597 626,600 625,600 622,603 621,603 619,605 618,605 616,607 615,607 613,609 612,609 611,610 610,610 608,612 607,612 606,613 605,613 603,615 602,615 601,616 600,616 599,617 598,617 597,618 596,618 595,619 594,619 593,620 592,620 591,621 590,621 589,622 588,622 587,623 586,623 585,624 583,624 582,625 581,625 580,626 578,626 577,627 576,627 575,628 573,628 572,629 570,629 569,630 567,630 566,631 564,631 563,632 561,632 560,633 556,633 555,634 553,634 552,635 548,635 547,636 543,636 542,637 537,637 536,638 530,638 529,639 521,639 520,640 499,640 498,641 501,641 502,642 518,642 519,643 561,643 562,642 572,642 573,641 581,641 582,640 587,640 588,639 592,639 593,638 597,638 598,637 601,637 602,636 606,636 607,635 610,635 611,634 613,634 614,633 616,633 617,632 619,632 620,631 622,631 623,630 625,630 626,629 628,629 629,628 631,628 632,627 633,627 634,626 635,626 636,625 638,625 639,624 640,624 641,623 642,623 643,622 644,622 645,621 646,621 647,620 649,620 650,619 651,619 653,617 654,617 655,616 656,616 657,615 658,615 659,614 660,614 662,612 663,612 664,611 665,611 667,609 668,609 670,607 671,607 673,605 674,605 677,602 678,602 680,600 681,600 685,596 686,596 690,592 691,592 712,571 712,570 717,565 717,564 719,562 719,561 722,558 722,557 724,555 724,554 726,552 726,551 728,549 728,548 730,546 730,545 731,544 731,543 732,542 732,541 733,540 733,539 734,538 734,537 735,536 735,535 736,534 736,533 737,532 737,531 738,530 738,528 739,527 739,526 740,525 740,523 741,522 741,520 742,519 742,516 743,515 743,513 744,512 744,509 745,508 745,503 746,502 746,498 747,497 747,489 748,488 748,459 747,458 747,451 746,450 746,446 745,445 745,441 744,440 744,438 743,437 743,434 742,433 742,431 741,430 741,428 740,427 740,426 739,425 739,423 738,422 738,421 737,420 737,419 736,418 736,417 735,416 735,415 734,414 734,413 732,411 732,410 731,409 731,408 729,406 729,405 726,402 726,401 723,398 723,397 707,381 706,381 703,378 702,378 699,375 698,375 696,373 695,373 693,371 692,371 691,370 690,370 689,369 688,369 687,368 686,368 684,366 682,366 681,365 680,365 679,364 678,364 677,363 676,363 675,362 673,362 672,361 670,361 669,360 667,360 666,359 664,359 663,358 660,358 659,357 657,357 656,356 652,356 651,355 647,355 646,354 640,354 639,353 627,353 626,352" /></svg>