<?xml version="1.0" encoding="UTF-8" standalone="no"?>
<!-- Created with Inkscape (http://www.inkscape.org/) -->

<svg
   version="1.1"
   id="svg1"
   width="1024"
   height="1024"
   viewBox="0 0 1024 1024"
   sodipodi:docname="rivda_logo_white.svg"
   inkscape:version="1.4.2 (ebf0e940, 2025-05-08)"
   xmlns:inkscape="http://www.inkscape.org/namespaces/inkscape"
   xmlns:sodipodi="http://sodipodi.sourceforge.net/DTD/sodipodi-0.dtd"
   xmlns="http://www.w3.org/2000/svg"
   xmlns:svg="http://www.w3.org/2000/svg">
  <defs
     id="defs1" />
  <sodipodi:namedview
     id="namedview1"
     pagecolor="#ffffff"
     bordercolor="#000000"
     borderopacity="0.25"
     inkscape:showpageshadow="2"
     inkscape:pageopacity="0.0"
     inkscape:pagecheckerboard="0"
     inkscape:deskcolor="#d1d1d1"
     inkscape:zoom="0.28761772"
     inkscape:cx="-85.182513"
     inkscape:cy="650.16857"
     inkscape:window-width="1304"
     inkscape:window-height="615"
     inkscape:window-x="295"
     inkscape:window-y="202"
     inkscape:window-maximized="0"
     inkscape:current-layer="g1" />
  <g
     inkscape:groupmode="layer"
     inkscape:label="Image"
     id="g1">
    <path
       style="fill:#fff3e5;fill-opacity:0.99607843"
       d="m 502.00909,646.87741 c -16.40185,-0.9928 -19.51073,-3.3804 -4.40157,-3.3804 68.29126,0 138.18611,-40.6203 173.6861,-100.94 42.92373,-72.93359 14.2214,-170.26236 -50.28453,-170.51335 -14.67711,-0.0571 -21.38714,2.50777 -30.5,11.65847 -9.6715,9.71166 -12.93503,16.72336 -46.68124,100.29484 -51.25089,126.92124 -54.27856,134.03504 -57.47821,135.05064 -3.76242,1.1941 -2.43535,3.9998 -28.64018,-60.5506 -7.70308,-18.975 -18.71758,-45.975 -24.47667,-60 -5.75909,-14.02504 -16.87214,-41.25004 -24.69567,-60.50004 -14.91574,-36.70061 -19.63122,-46.18839 -25.52996,-51.36755 -4.05967,-3.56444 -9.58456,-6.13245 -13.19352,-6.13245 -1.7962,0 -2.36114,-0.46763 -2.11418,-1.75 0.39357,-2.04362 73.72947,-2.78803 73.88685,-0.75 0.0925,1.1973 -1.65999,2.19066 -5.13662,2.91165 -3.83597,0.79552 -9.2664,4.80075 -10.78183,7.95217 -2.32531,4.83562 0.49121,13.1069 28.82008,84.63618 14.92102,37.67504 30.14234,76.26244 33.82514,85.74984 3.68281,9.4873 6.94434,17.2498 7.24785,17.25 0.30352,10e-5 10.5294,-25.0873 22.72419,-55.7498 47.22577,-118.74419 45.36978,-113.49419 45.51593,-128.75004 0.19805,-20.6729 -6.33052,-29.06519 -25.6866,-33.01937 -2.24332,-0.45828 -2.62612,-0.86015 -1.70125,-1.78599 1.66415,-1.6659 68.16755,-2.21776 85.53804,-0.70981 79.29204,6.8834 125.78147,64.65513 115.08559,143.01521 -9.86771,72.2927 -78.51131,132.1475 -167.02774,145.6422 -9.6324,1.4685 -53.80225,2.5976 -68,1.7382 z M 80.509089,611.53551 c 0,-0.5288 1.9125,-1.4656 4.25,-2.0817 12.60745,-3.3233 16.525861,-8.7861 17.858541,-24.8974 1.0575,-12.7846 1.02494,-147.11028 -0.0414,-170.7231 -1.06193,-23.51554 -4.878681,-30.25074 -18.779377,-33.13888 -2.351423,-0.48855 -3.901252,-1.42888 -4.105822,-2.49112 -0.455023,-2.36275 88.422709,-2.58326 103.849779,-0.25766 39.21039,5.91089 61.93353,28.8607 61.93353,62.55132 0,26.66527 -14.98638,47.60789 -40.80416,57.02154 -3.42654,1.2494 -6.09772,2.5431 -5.93596,2.875 6.11718,12.5508 41.93729,80.4815 46.63848,88.4471 7.27672,12.3295 11.82073,15.9013 26.94975,21.1837 6.88244,2.403 -33.70203,3.7419 -42.16808,1.3912 -9.28536,-2.5783 -9.92852,-3.6062 -46.87764,-74.9185 l -17.35738,-33.5 -16.31996,-0.2754 -16.31996,-0.2753 0.51358,44.2753 c 0.36052,31.0805 0.88697,45.5772 1.7665,48.6437 1.79048,6.2426 6.65622,10.6792 14.12395,12.8784 12.8726,3.7909 9.493,4.2533 -31.09106,4.2533 -23.704381,0 -38.083311,-0.3631 -38.083311,-0.9615 z M 175.82304,491.59417 c 24.87137,-6.51895 38.68605,-24.87837 38.68605,-51.41295 0,-16.78608 -5.2144,-29.87085 -15.93345,-39.98266 -12.08673,-11.40201 -19.1791,-13.63157 -45.81655,-14.40291 l -19.25,-0.55743 v 53.96271 c 0,29.67949 0.3375,54.31679 0.75,54.74955 1.52638,1.60136 33.34697,-0.20259 41.56395,-2.35631 z m 110.92984,119.65284 c 0.22574,-0.6875 1.50589,-1.3821 2.84476,-1.5434 6.02639,-0.7264 13.228,-5.5808 15.85641,-10.6885 4.07855,-7.9256 4.01729,-197.89999 -0.0666,-206.60866 -3.42072,-7.29447 -7.51457,-10.2354 -17.21658,-12.36801 -2.35036,-0.51663 -2.63014,-0.87464 -1.62756,-2.08267 1.56153,-1.88152 73.37988,-2.21587 74.53491,-0.347 0.89346,1.44566 -0.94993,2.53357 -5.53539,3.26682 -5.45375,0.87209 -11.83376,5.95129 -14.37054,11.44055 -2.1632,4.68083 -2.1632,4.68083 -2.1632,101.68083 0,78.18404 0.25985,97.86114 1.3396,101.43964 1.90527,6.3143 6.57686,10.5692 13.99913,12.7505 12.76275,3.7507 8.75123,4.3099 -30.92206,4.3099 -29.21891,0 -36.99629,-0.2651 -36.67288,-1.25 z m 439.96147,0.1342 c 0.21016,-0.6305 3.07838,-1.974 6.37384,-2.9857 3.35823,-1.0309 7.75023,-3.3445 9.99266,-5.264 6.33994,-5.4267 4.88015,-1.8994 46.40752,-112.13454 8.70215,-23.1 18.74061,-49.65 22.30769,-59 3.56708,-9.35 9.97607,-26.225 14.2422,-37.5 8.35699,-22.08677 8.81308,-23 11.48693,-23 2.29923,0 -0.49966,-7.07184 48.48313,122.5 44.43213,117.53424 40.50993,109.15964 53.42825,114.07784 10.86331,4.1358 8.80485,4.4222 -31.78513,4.4222 -38.87121,0 -44.01012,-0.5248 -33.92774,-3.4648 18.53122,-5.4035 18.74517,-8.8467 3.20241,-51.538 l -10.91702,-29.9857 -39.65217,-0.01 -39.65218,-0.01 -1.00218,2.75 c -17.59232,48.2735 -17.70756,48.6202 -19.19251,57.7441 -1.75758,10.7989 2.18352,17.3107 12.2758,20.2828 10.75059,3.166 7.59362,3.7107 -23.11518,3.9883 -21.71229,0.1963 -29.23909,-0.033 -28.95632,-0.881 z m 135.26086,-94.6342 c -0.41132,-0.9625 -8.43029,-22.78754 -17.81995,-48.50004 -9.38965,-25.7125 -17.31376,-46.74467 -17.60913,-46.73816 -0.53945,0.0119 -36.05073,94.8334 -36.0418,96.2382 0.003,0.4125 16.2529,0.75 36.11175,0.75 34.00584,0 36.06347,-0.1019 35.35913,-1.75 z"
       id="path1" />
  </g>
</svg>
